<mxfile host="app.diagrams.net" modified="2024-07-19T08:06:33.045Z" agent="Mozilla/5.0 (Windows NT 10.0; Win64; x64) AppleWebKit/537.36 (KHTML, like Gecko) Chrome/126.0.0.0 Safari/537.36" version="24.7.1" etag="S2xN3MSZG08XXjTZwjQS" type="github">
  <diagram name="Page-1" id="0xC3TPfJdbPliWC2_FSI">
    <mxGraphModel>
      <root>
        <mxCell id="0" />
        <mxCell id="1" parent="0" />
      </root>
    </mxGraphModel>
  </diagram>
</mxfile>
